<svg id="svg" xmlns="http://www.w3.org/2000/svg" xmlns:xlink="http://www.w3.org/1999/xlink" width="400" height="400" viewBox="0, 0, 400,400"><g id="svgg"><path id="path0" d="M152.669 38.672 L 108.259 68.750 81.668 68.751 C 45.135 68.753,47.685 66.963,47.668 92.623 L 47.656 109.856 25.301 124.979 C 13.005 133.297,2.282 140.814,1.473 141.683 C 0.043 143.217,-0.000 146.824,0.000 265.051 L 0.000 386.839 2.284 389.123 L 4.567 391.406 200.000 391.406 L 395.433 391.406 397.716 389.123 L 400.000 386.839 400.000 265.051 C 400.000 144.824,399.980 143.242,398.456 141.606 C 397.606 140.694,386.884 133.178,374.628 124.903 L 352.344 109.858 352.332 92.624 C 352.315 66.962,354.866 68.753,318.323 68.751 L 291.724 68.750 259.339 46.775 C 201.113 7.267,203.176 8.594,199.970 8.594 C 197.455 8.594,191.303 12.506,152.669 38.672 M231.199 47.852 L 261.464 68.359 230.732 68.564 C 213.829 68.676,186.171 68.676,169.270 68.564 L 138.540 68.359 168.684 47.888 C 185.263 36.628,199.302 27.400,199.881 27.380 C 200.460 27.360,214.553 36.572,231.199 47.852 M335.938 135.122 L 335.938 185.088 293.264 221.060 L 250.591 257.031 200.012 257.031 L 149.433 257.031 106.748 221.063 L 64.063 185.094 64.063 135.125 L 64.063 85.156 200.000 85.156 L 335.938 85.156 335.938 135.122 M219.834 114.852 C 213.894 115.709,208.231 117.793,203.877 120.723 L 200.000 123.332 196.035 120.663 C 170.907 103.754,135.253 123.136,135.168 153.752 C 135.126 168.646,137.541 172.269,168.591 203.909 C 196.352 232.196,197.018 232.729,202.694 231.161 C 206.585 230.087,256.725 178.976,260.100 172.643 C 275.256 144.207,251.607 110.265,219.834 114.852 M47.656 150.849 L 47.656 171.229 42.773 167.131 C 40.088 164.877,34.103 159.861,29.474 155.985 C 24.845 152.108,21.154 148.667,21.271 148.337 C 21.520 147.639,46.200 130.593,47.070 130.519 C 47.393 130.491,47.656 139.640,47.656 150.849 M184.066 133.195 C 186.260 134.169,190.043 136.767,192.473 138.967 C 196.231 142.371,197.356 142.969,200.000 142.969 C 202.644 142.969,203.769 142.371,207.527 138.967 C 224.481 123.614,248.105 132.570,247.961 154.297 C 247.899 163.562,247.018 164.773,222.122 189.844 L 200.011 212.109 177.880 189.844 C 161.477 173.342,155.311 166.626,154.057 163.898 C 145.070 144.353,164.477 124.498,184.066 133.195 M365.862 139.100 C 372.822 143.846,378.612 148.002,378.729 148.333 C 378.846 148.665,375.155 152.108,370.526 155.985 C 365.897 159.861,359.912 164.877,357.227 167.131 L 352.344 171.229 352.344 150.849 C 352.344 139.640,352.538 130.469,352.776 130.469 C 353.014 130.469,358.903 134.353,365.862 139.100 M73.824 215.130 C 103.905 240.425,129.497 262.067,130.696 263.224 L 132.876 265.328 79.264 310.509 C 49.777 335.359,23.572 357.429,21.029 359.554 L 16.406 363.416 16.406 265.206 C 16.406 171.886,16.474 167.050,17.770 168.068 C 18.520 168.658,43.744 189.836,73.824 215.130 M383.404 313.927 L 383.203 363.132 325.166 314.230 L 267.128 265.329 268.916 263.580 C 269.899 262.618,296.016 240.514,326.953 214.461 L 383.203 167.092 383.404 215.907 C 383.515 242.756,383.515 286.865,383.404 313.927 M310.887 324.023 L 370.919 374.609 285.460 374.808 C 238.457 374.917,161.545 374.917,114.545 374.808 L 29.090 374.609 88.959 324.073 L 148.828 273.537 199.841 273.487 L 250.854 273.438 310.887 324.023 M138.522 344.528 C 133.752 346.480,132.712 353.926,136.659 357.873 L 138.942 360.156 178.028 360.156 C 205.164 360.156,217.700 359.889,219.030 359.283 C 223.760 357.128,224.644 349.796,220.629 346.023 L 218.625 344.141 179.430 343.984 C 157.684 343.897,139.472 344.139,138.522 344.528 M245.918 344.968 C 243.149 346.470,242.188 348.374,242.188 352.352 C 242.188 361.521,255.280 363.163,257.698 354.297 C 259.651 347.136,252.443 341.427,245.918 344.968 " stroke="none" fill="#FFFFFF" fill-rule="evenodd"></path></g></svg>